<svg xmlns="http://www.w3.org/2000/svg" viewBox="0 0 24 24" aria-hidden="true" role="img">
  <path fill="#ffffff" d="M12 .297a12 12 0 0 0-3.79 23.403c.6.111.82-.261.82-.577v-2.01c-3.338.726-4.04-1.612-4.04-1.612-.546-1.387-1.332-1.756-1.332-1.756-1.09-.745.083-.729.083-.729 1.205.084 1.84 1.238 1.84 1.238 1.07 1.838 2.809 1.308 3.495.999.108-.776.419-1.308.762-1.609-2.665-.304-5.467-1.334-5.467-5.931 0-1.31.468-2.381 1.236-3.219-.124-.303-.536-1.524.117-3.176 0 0 1.008-.322 3.301 1.23a11.5 11.5 0 0 1 6.004 0c2.293-1.552 3.3-1.23 3.3-1.23.655 1.652.243 2.873.12 3.176.77.838 1.235 1.909 1.235 3.219 0 4.609-2.805 5.624-5.476 5.922.43.37.815 1.099.815 2.214v3.282c0 .319.218.694.825.576A12 12 0 0 0 12 .297z"/>
</svg>