<svg xmlns="http://www.w3.org/2000/svg" viewBox="0 0 64 64">
  <defs>
    <radialGradient id="bg" cx="35%" cy="30%" r="70%">
      <stop offset="0%" stop-color="#2dd4bf" />
      <stop offset="55%" stop-color="#0ea5e9" />
      <stop offset="100%" stop-color="#1d4ed8" />
    </radialGradient>
  </defs>
  <rect width="64" height="64" rx="14" fill="#020617" />
  <circle cx="32" cy="32" r="22" fill="url(#bg)" stroke="#93c5fd" stroke-width="1.5" />
  <path d="M18 32h28M32 10c6 6 9 14 9 22s-3 16-9 22c-6-6-9-14-9-22s3-16 9-22Z" fill="none" stroke="#e0f2fe" stroke-width="1.6" stroke-linecap="round" opacity="0.95" />
  <path d="M13 24c6 3 12 4 19 4s13-1 19-4M13 40c6-3 12-4 19-4s13 1 19 4" fill="none" stroke="#e0f2fe" stroke-width="1.6" stroke-linecap="round" opacity="0.95" />
  <path d="M24 20c2 1 3 3 2 6-2 2-2 5 1 7 2 2 2 4 1 6M42 18c-2 2-3 4-2 7 2 2 2 4 0 6-2 2-2 4 0 7" fill="none" stroke="#bbf7d0" stroke-width="1.5" stroke-linecap="round" opacity="0.9" />
</svg>
